<svg xmlns="http://www.w3.org/2000/svg" xmlns:xlink="http://www.w3.org/1999/xlink" version="1.1" width="50" height="50" viewBox="0 0 50 50" xml:space="preserve">
<desc>Created with Fabric.js 3.5.0</desc>
<defs>
</defs>
<rect x="0" y="0" width="100%" height="100%" fill="rgba(157,157,157,0)"/>
<g transform="matrix(1.4147 0 0 1.4147 25.1679 25.0004)" id="11503">
<g style="">
		<g transform="matrix(0.0794 0 0 0.0794 -12.6251 -0.4612)" id="SvgjsG8165">
<path style="stroke: none; stroke-width: 1; stroke-dasharray: none; stroke-linecap: butt; stroke-dashoffset: 0; stroke-linejoin: miter; stroke-miterlimit: 4; is-custom-font: none; font-file-url: none; fill: rgb(255,255,255); fill-rule: nonzero; opacity: 1;" transform=" translate(-84.55, -69.6017)" d="M 83.7 71.1 c 0.2 0 0.3 0 0.5 -0.1 l 1.7 -1 c 0.5 -0.3 0.6 -0.9 0.4 -1.4 c -0.3 -0.5 -0.9 -0.6 -1.4 -0.4 l -1.7 1 c -0.5 0.3 -0.6 0.9 -0.4 1.4 C 83 70.9 83.3 71.1 83.7 71.1 z" stroke-linecap="round"/>
</g>
		<g transform="matrix(0.0794 0 0 0.0794 -11.9341 -0.8583)" id="SvgjsG8165">
<path style="stroke: none; stroke-width: 1; stroke-dasharray: none; stroke-linecap: butt; stroke-dashoffset: 0; stroke-linejoin: miter; stroke-miterlimit: 4; is-custom-font: none; font-file-url: none; fill: rgb(255,255,255); fill-rule: nonzero; opacity: 1;" transform=" translate(-93.25, -64.6017)" d="M 92.4 66.1 c 0.2 0 0.3 0 0.5 -0.1 l 1.7 -1 c 0.5 -0.3 0.6 -0.9 0.4 -1.4 c -0.3 -0.5 -0.9 -0.6 -1.4 -0.4 l -1.7 1 c -0.5 0.3 -0.6 0.9 -0.4 1.4 C 91.7 65.9 92 66.1 92.4 66.1 z" stroke-linecap="round"/>
</g>
		<g transform="matrix(0.0794 0 0 0.0794 -14.1763 -0.4789)" id="SvgjsG8165">
<path style="stroke: none; stroke-width: 1; stroke-dasharray: none; stroke-linecap: butt; stroke-dashoffset: 0; stroke-linejoin: miter; stroke-miterlimit: 4; is-custom-font: none; font-file-url: none; fill: rgb(255,255,255); fill-rule: nonzero; opacity: 1;" transform=" translate(-65.0188, -69.3795)" d="M 66.4 69 l -1.7 -1 c -0.5 -0.3 -1.1 -0.1 -1.4 0.4 c -0.3 0.5 -0.1 1.1 0.4 1.4 l 1.7 1 c 0.2 0.1 0.3 0.1 0.5 0.1 c 0.3 0 0.7 -0.2 0.9 -0.5 C 67 69.9 66.8 69.3 66.4 69 z" stroke-linecap="round"/>
</g>
		<g transform="matrix(0.0794 0 0 0.0794 -14.8729 -0.8681)" id="SvgjsG8165">
<path style="stroke: none; stroke-width: 1; stroke-dasharray: none; stroke-linecap: butt; stroke-dashoffset: 0; stroke-linejoin: miter; stroke-miterlimit: 4; is-custom-font: none; font-file-url: none; fill: rgb(255,255,255); fill-rule: nonzero; opacity: 1;" transform=" translate(-56.25, -64.4795)" d="M 57.6 64.1 l -1.7 -1 c -0.5 -0.3 -1.1 -0.1 -1.4 0.4 c -0.3 0.5 -0.1 1.1 0.4 1.4 l 1.7 1 c 0.2 0.1 0.3 0.1 0.5 0.1 c 0.3 0 0.7 -0.2 0.9 -0.5 C 58.3 65 58.1 64.4 57.6 64.1 z" stroke-linecap="round"/>
</g>
		<g transform="matrix(0.0794 0 0 0.0794 -13.3836 1.6355)" id="SvgjsG8165">
<path style="stroke: none; stroke-width: 1; stroke-dasharray: none; stroke-linecap: butt; stroke-dashoffset: 0; stroke-linejoin: miter; stroke-miterlimit: 4; is-custom-font: none; font-file-url: none; fill: rgb(255,255,255); fill-rule: nonzero; opacity: 1;" transform=" translate(-75, -96)" d="M 75 94 c -0.6 0 -1 0.4 -1 1 v 2 c 0 0.6 0.4 1 1 1 s 1 -0.4 1 -1 v -2 C 76 94.4 75.6 94 75 94 z" stroke-linecap="round"/>
</g>
		<g transform="matrix(0.0794 0 0 0.0794 -13.3836 0.8413)" id="SvgjsG8165">
<path style="stroke: none; stroke-width: 1; stroke-dasharray: none; stroke-linecap: butt; stroke-dashoffset: 0; stroke-linejoin: miter; stroke-miterlimit: 4; is-custom-font: none; font-file-url: none; fill: rgb(255,255,255); fill-rule: nonzero; opacity: 1;" transform=" translate(-75, -86)" d="M 75 84 c -0.6 0 -1 0.4 -1 1 v 2 c 0 0.6 0.4 1 1 1 s 1 -0.4 1 -1 v -2 C 76 84.4 75.6 84 75 84 z" stroke-linecap="round"/>
</g>
		<g transform="matrix(0.0794 0 0 0.0794 -13.3836 -0.9141)" id="SvgjsG8165">
<path style="stroke: none; stroke-width: 1; stroke-dasharray: none; stroke-linecap: butt; stroke-dashoffset: 0; stroke-linejoin: miter; stroke-miterlimit: 4; is-custom-font: none; font-file-url: none; fill: rgb(255,255,255); fill-rule: nonzero; opacity: 1;" transform=" translate(-75, -63.9)" d="M 75 65.9 c 0.6 0 1 -0.4 1 -1 v -2 c 0 -0.6 -0.4 -1 -1 -1 s -1 0.4 -1 1 v 2 C 74 65.4 74.4 65.9 75 65.9 z" stroke-linecap="round"/>
</g>
		<g transform="matrix(0.0794 0 0 0.0794 -13.3836 -1.7084)" id="SvgjsG8165">
<path style="stroke: none; stroke-width: 1; stroke-dasharray: none; stroke-linecap: butt; stroke-dashoffset: 0; stroke-linejoin: miter; stroke-miterlimit: 4; is-custom-font: none; font-file-url: none; fill: rgb(255,255,255); fill-rule: nonzero; opacity: 1;" transform=" translate(-75, -53.9)" d="M 75 55.9 c 0.6 0 1 -0.4 1 -1 v -2 c 0 -0.6 -0.4 -1 -1 -1 s -1 0.4 -1 1 v 2 C 74 55.4 74.4 55.9 75 55.9 z" stroke-linecap="round"/>
</g>
		<g transform="matrix(0.0794 0 0 0.0794 -11.9279 0.784)" id="SvgjsG8165">
<path style="stroke: none; stroke-width: 1; stroke-dasharray: none; stroke-linecap: butt; stroke-dashoffset: 0; stroke-linejoin: miter; stroke-miterlimit: 4; is-custom-font: none; font-file-url: none; fill: rgb(255,255,255); fill-rule: nonzero; opacity: 1;" transform=" translate(-93.3278, -85.2795)" d="M 94.7 84.9 l -1.7 -1 c -0.5 -0.3 -1.1 -0.1 -1.4 0.4 c -0.3 0.5 -0.1 1.1 0.4 1.4 l 1.7 1 c 0.2 0.1 0.3 0.1 0.5 0.1 c 0.3 0 0.7 -0.2 0.9 -0.5 C 95.3 85.8 95.2 85.2 94.7 84.9 z" stroke-linecap="round"/>
</g>
		<g transform="matrix(0.0794 0 0 0.0794 -12.6196 0.3948)" id="SvgjsG8165">
<path style="stroke: none; stroke-width: 1; stroke-dasharray: none; stroke-linecap: butt; stroke-dashoffset: 0; stroke-linejoin: miter; stroke-miterlimit: 4; is-custom-font: none; font-file-url: none; fill: rgb(255,255,255); fill-rule: nonzero; opacity: 1;" transform=" translate(-84.6188, -80.3795)" d="M 86 80 l -1.7 -1 c -0.5 -0.3 -1.1 -0.1 -1.4 0.4 s -0.1 1.1 0.4 1.4 l 1.7 1 c 0.2 0.1 0.3 0.1 0.5 0.1 c 0.3 0 0.7 -0.2 0.9 -0.5 C 86.6 80.9 86.4 80.3 86 80 z" stroke-linecap="round"/>
</g>
		<g transform="matrix(0.0794 0 0 0.0794 -14.865 0.8078)" id="SvgjsG8165">
<path style="stroke: none; stroke-width: 1; stroke-dasharray: none; stroke-linecap: butt; stroke-dashoffset: 0; stroke-linejoin: miter; stroke-miterlimit: 4; is-custom-font: none; font-file-url: none; fill: rgb(255,255,255); fill-rule: nonzero; opacity: 1;" transform=" translate(-56.35, -85.5795)" d="M 56.7 84.2 l -1.7 1 c -0.5 0.3 -0.7 0.9 -0.4 1.4 c 0.2 0.3 0.5 0.5 0.9 0.5 c 0.2 0 0.3 0 0.5 -0.1 l 1.7 -1 c 0.5 -0.3 0.7 -0.9 0.4 -1.4 C 57.8 84.1 57.1 83.9 56.7 84.2 z" stroke-linecap="round"/>
</g>
		<g transform="matrix(0.0794 0 0 0.0794 -14.1739 0.4186)" id="SvgjsG8165">
<path style="stroke: none; stroke-width: 1; stroke-dasharray: none; stroke-linecap: butt; stroke-dashoffset: 0; stroke-linejoin: miter; stroke-miterlimit: 4; is-custom-font: none; font-file-url: none; fill: rgb(255,255,255); fill-rule: nonzero; opacity: 1;" transform=" translate(-65.05, -80.6795)" d="M 65.4 79.3 l -1.7 1 c -0.5 0.3 -0.7 0.9 -0.4 1.4 c 0.2 0.3 0.5 0.5 0.9 0.5 c 0.2 0 0.3 0 0.5 -0.1 l 1.7 -1 c 0.5 -0.3 0.7 -0.9 0.4 -1.4 C 66.5 79.2 65.9 79 65.4 79.3 z" stroke-linecap="round"/>
</g>
		<g transform="matrix(0.0794 0 0 0.0794 -13.3771 -0.034)" id="SvgjsG8165">
<path style="stroke: none; stroke-width: 1; stroke-dasharray: none; stroke-linecap: butt; stroke-dashoffset: 0; stroke-linejoin: miter; stroke-miterlimit: 4; is-custom-font: none; font-file-url: none; fill: rgb(255,255,255); fill-rule: nonzero; opacity: 1;" transform=" translate(-75.1, -75)" d="M 121.1 75 c 3.9 -5.2 6.7 -10.4 8 -15.3 c 1.5 -5.7 1.1 -10.6 -1.3 -14.7 c -4.6 -7.8 -15.8 -10.8 -29.8 -9.2 C 92.4 23.1 84.2 15 75 15 c -9.2 0 -17.4 8.1 -23 20.8 c -14 -1.6 -25.2 1.4 -29.8 9.2 c -2.4 4.1 -2.8 9 -1.3 14.7 c 1.3 5 4.1 10.2 8 15.3 c -3.9 5.2 -6.7 10.4 -8 15.3 c -1.5 5.7 -1.1 10.6 1.3 14.7 c 3.8 6.5 12.1 9.6 22.8 9.6 c 2.3 0 4.6 -0.2 7.1 -0.4 c 5.6 12.7 13.8 20.8 23 20.8 c 9.2 0 17.4 -8.1 23 -20.8 c 2.4 0.3 4.8 0.4 7.1 0.4 c 10.7 0 19 -3.2 22.8 -9.6 c 2.4 -4.1 2.8 -9 1.3 -14.7 C 127.8 85.4 125.1 80.2 121.1 75 z M 105.2 37.3 c 9.9 0 17.5 2.9 20.9 8.8 c 2.1 3.6 2.5 8 1.1 13.1 c -1.2 4.5 -3.8 9.4 -7.4 14.2 c -3.2 -4 -7.2 -8 -11.7 -11.8 c 0.4 -0.8 0.7 -1.7 0.7 -2.6 c 0 -3 -2.5 -5.5 -5.5 -5.5 c -1.1 -5.7 -2.7 -11 -4.6 -15.8 C 101 37.4 103.1 37.3 105.2 37.3 z M 106.8 90.9 c 0 1.9 -1.6 3.5 -3.5 3.5 s -3.5 -1.6 -3.5 -3.5 s 1.6 -3.5 3.5 -3.5 S 106.8 89 106.8 90.9 z M 103 85.4 c -2.9 0.2 -5.2 2.6 -5.2 5.5 c 0 0.9 0.2 1.8 0.6 2.5 c -2.9 2 -6 4 -9.2 5.8 c -3.2 1.8 -6.4 3.4 -9.6 4.9 c -1 -1.5 -2.7 -2.5 -4.6 -2.5 c -1.9 0 -3.6 1 -4.6 2.5 c -3.2 -1.5 -6.4 -3.1 -9.6 -4.9 c -3.2 -1.8 -6.3 -3.7 -9.2 -5.8 c 0.4 -0.8 0.6 -1.6 0.6 -2.5 c 0 -2.9 -2.3 -5.3 -5.2 -5.5 c -0.3 -3.4 -0.5 -6.8 -0.5 -10.4 c 0 -3.5 0.2 -7 0.5 -10.4 c 2.9 -0.2 5.2 -2.6 5.2 -5.5 c 0 -0.9 -0.2 -1.8 -0.6 -2.5 c 2.9 -2 6 -4 9.2 -5.8 c 3.2 -1.8 6.4 -3.4 9.6 -4.9 c 1 1.5 2.7 2.5 4.6 2.5 c 1.9 0 3.6 -1 4.6 -2.5 c 3.2 1.5 6.4 3.1 9.6 4.9 c 3.2 1.8 6.2 3.7 9.1 5.7 c -0.3 0.7 -0.5 1.5 -0.5 2.4 c 0 2.9 2.3 5.3 5.2 5.5 c 0.3 3.4 0.5 7 0.5 10.6 C 103.4 78.5 103.3 82 103 85.4 z M 78.5 107.1 c 0 1.9 -1.6 3.5 -3.5 3.5 s -3.5 -1.6 -3.5 -3.5 s 1.6 -3.5 3.5 -3.5 S 78.5 105.2 78.5 107.1 z M 46.7 87.4 c 1.9 0 3.5 1.6 3.5 3.5 s -1.6 3.5 -3.5 3.5 c -1.9 0 -3.5 -1.6 -3.5 -3.5 S 44.7 87.4 46.7 87.4 z M 43.2 59.1 c 0 -1.9 1.6 -3.5 3.5 -3.5 c 1.9 0 3.5 1.6 3.5 3.5 c 0 1.9 -1.6 3.5 -3.5 3.5 C 44.7 62.6 43.2 61 43.2 59.1 z M 71.5 42.9 c 0 -1.9 1.6 -3.5 3.5 -3.5 s 3.5 1.6 3.5 3.5 c 0 1.9 -1.6 3.5 -3.5 3.5 S 71.5 44.8 71.5 42.9 z M 103.3 62.5 c -1.9 0 -3.5 -1.6 -3.5 -3.5 s 1.6 -3.5 3.5 -3.5 s 3.5 1.6 3.5 3.5 S 105.3 62.5 103.3 62.5 z M 99.5 54.9 c -2.9 -2 -6.1 -4 -9.3 -5.8 c -3.3 -1.9 -6.5 -3.5 -9.8 -5 c 0.1 -0.4 0.1 -0.8 0.1 -1.2 c 0 -0.3 0 -0.6 -0.1 -1 c 5.7 -2 11.2 -3.3 16.4 -4 c 1.9 4.7 3.5 10.1 4.6 15.9 C 100.7 54 100.1 54.4 99.5 54.9 z M 69.6 44.1 c -3.3 1.5 -6.5 3.1 -9.8 5 c -3.3 1.9 -6.4 3.8 -9.4 5.9 c -0.5 -0.5 -1.2 -0.9 -1.8 -1.1 c 1.1 -5.9 2.7 -11.3 4.6 -16 c 5.1 0.7 10.7 2.1 16.4 4 c -0.1 0.3 -0.1 0.6 -0.1 1 C 69.5 43.3 69.5 43.7 69.6 44.1 z M 43 63.2 c 0.6 0.5 1.3 0.9 2.1 1.2 c -0.3 3.4 -0.5 7 -0.5 10.6 c 0 3.6 0.2 7.2 0.5 10.6 c -0.8 0.2 -1.5 0.6 -2.1 1.2 C 38.6 83 34.7 79 31.5 75 C 34.7 71 38.6 67 43 63.2 z M 50.4 95 c 3 2.1 6.1 4 9.4 5.9 c 3.3 1.9 6.5 3.5 9.8 5 c -0.1 0.4 -0.1 0.8 -0.1 1.2 c 0 0.3 0 0.6 0.1 1 c -5.7 2 -11.2 3.3 -16.4 4 c -1.9 -4.8 -3.5 -10.2 -4.6 -16 C 49.2 95.9 49.9 95.5 50.4 95 z M 80.4 105.9 c 3.3 -1.5 6.5 -3.1 9.8 -5 c 3.3 -1.9 6.4 -3.8 9.4 -5.9 c 0.5 0.5 1.2 0.9 1.8 1.1 c -1.1 5.9 -2.7 11.3 -4.6 16 c -5.1 -0.7 -10.7 -2.1 -16.4 -4 c 0.1 -0.3 0.1 -0.6 0.1 -1 C 80.5 106.7 80.5 106.3 80.4 105.9 z M 107 86.8 c -0.6 -0.5 -1.3 -0.9 -2.1 -1.2 c 0.3 -3.4 0.5 -7 0.5 -10.6 c 0 -3.7 -0.2 -7.3 -0.5 -10.8 c 0.7 -0.2 1.4 -0.6 2 -1.1 c 4.5 3.8 8.4 7.8 11.6 11.9 C 115.3 79 111.4 83 107 86.8 z M 75 17 c 8.3 0 15.8 7.4 21 19.1 c -5.1 0.7 -10.6 2.1 -16.3 4 c -1 -1.6 -2.7 -2.7 -4.8 -2.7 c -2 0 -3.8 1.1 -4.8 2.7 c -5.6 -1.9 -11.1 -3.3 -16.3 -4 C 59.2 24.4 66.7 17 75 17 z M 22.8 59.1 c -1.4 -5.1 -1 -9.5 1.1 -13.1 c 3.5 -5.9 11.1 -8.8 20.9 -8.8 c 2 0 4.2 0.1 6.4 0.4 c -1.9 4.8 -3.5 10.1 -4.6 15.9 c -3 0 -5.4 2.5 -5.4 5.5 c 0 0.9 0.2 1.7 0.6 2.5 c -4.5 3.8 -8.4 7.7 -11.6 11.7 C 26.5 68.5 24 63.7 22.8 59.1 z M 23.9 104 c -2.1 -3.6 -2.5 -8 -1.1 -13.1 c 1.2 -4.5 3.8 -9.4 7.4 -14.2 c 3.2 4 7.1 8 11.6 11.7 c -0.4 0.8 -0.6 1.6 -0.6 2.5 c 0 3 2.4 5.5 5.4 5.5 c 1.1 5.8 2.7 11.2 4.6 15.9 C 38.3 113.8 28.1 111.1 23.9 104 z M 75 133 c -8.3 0 -15.8 -7.4 -21 -19.1 c 5.1 -0.7 10.6 -2.1 16.3 -4 c 1 1.6 2.7 2.7 4.8 2.7 c 2 0 3.8 -1.1 4.8 -2.7 c 5.6 1.9 11.1 3.3 16.3 4 C 90.8 125.6 83.3 133 75 133 z M 126.1 104 c -4.2 7.1 -14.4 9.8 -27.3 8.4 c 1.9 -4.8 3.5 -10.1 4.6 -15.9 c 3 -0.1 5.4 -2.5 5.4 -5.5 c 0 -0.9 -0.2 -1.7 -0.6 -2.5 c 4.5 -3.8 8.4 -7.7 11.6 -11.7 c 3.6 4.8 6.2 9.7 7.4 14.2 C 128.6 96 128.2 100.4 126.1 104 z" stroke-linecap="round"/>
</g>
		<g transform="matrix(0.0794 0 0 0.0794 -13.3837 -0.0325)" id="SvgjsG8165">
<path style="stroke: none; stroke-width: 1; stroke-dasharray: none; stroke-linecap: butt; stroke-dashoffset: 0; stroke-linejoin: miter; stroke-miterlimit: 4; is-custom-font: none; font-file-url: none; fill: rgb(255,255,255); fill-rule: nonzero; opacity: 1;" transform=" translate(-75, -75)" d="M 75 69.5 c -3.1 0 -5.5 2.5 -5.5 5.5 s 2.5 5.5 5.5 5.5 s 5.5 -2.5 5.5 -5.5 S 78.1 69.5 75 69.5 z M 75 78.5 c -1.9 0 -3.5 -1.6 -3.5 -3.5 s 1.6 -3.5 3.5 -3.5 s 3.5 1.6 3.5 3.5 S 76.9 78.5 75 78.5 z" stroke-linecap="round"/>
</g>
		<g transform="matrix(1.0808 0 0 1.0808 6.3122 0)" id="SvgjsG8166">
<path style="stroke: none; stroke-width: 1; stroke-dasharray: none; stroke-linecap: butt; stroke-dashoffset: 0; stroke-linejoin: miter; stroke-miterlimit: 4; is-custom-font: none; font-file-url: none; fill: rgb(255,255,255); fill-rule: nonzero; opacity: 1;" transform=" translate(-10.12, -12.12)" d="M 8.44 4.24 c -0.92 3.1066 -1.6533 5.59 -2.2 7.45 s -1.0467 3.5666 -1.5 5.12 s -0.68 2.3434 -0.68 2.37 l 0.24 0.82 l 0.16 0 l 4.8 -15.76 l -0.82 0 z M 3.74 14.68 l -2.86 -10.44 l -0.88 0 l 3.34 12.28 z M 13.66 20 c 0.58666 0 1.1334 -0.06664 1.6401 -0.19998 l -0.16 -0.6 c -0.45334 0.12 -0.94668 0.18 -1.48 0.18 l -1.18 0 l 0 -14.46 l 1.18 0 c 0.86666 0 1.6633 0.17 2.39 0.51 s 1.3533 0.81 1.88 1.41 s 0.94 1.3233 1.24 2.17 s 0.45 1.7767 0.45 2.79 l 0 0.42 c 0 0.74666 -0.1 1.48 -0.3 2.2 s -0.47334 1.3833 -0.82 1.99 s -0.75332 1.1367 -1.22 1.59 s -0.96 0.78 -1.48 0.98 l 0.24 0.58 c 0.58666 -0.24 1.1333 -0.60334 1.64 -1.09 s 0.95 -1.0567 1.33 -1.71 s 0.68 -1.37 0.9 -2.15 s 0.33 -1.5767 0.33 -2.39 l 0 -0.42 c 0 -1.0933 -0.16666 -2.0966 -0.5 -3.01 s -0.79334 -1.7033 -1.38 -2.37 s -1.28 -1.1867 -2.08 -1.56 s -1.6733 -0.56 -2.62 -0.56 l -1.8 0 l 0 15.7 l 1.8 0 z" stroke-linecap="round"/>
</g>
</g>
</g>
</svg>